<svg width="862" height="229" viewBox="0 0 862 229" fill="none" xmlns="http://www.w3.org/2000/svg">
<path d="M1.467 155L46.944 40.9H66.993L112.633 155H92.584L81.337 126.964H32.6L21.516 155H1.467ZM38.957 110.175H74.98L57.05 64.535L38.957 110.175ZM166.622 155V40.9H202.482C213.674 40.9 223.563 43.345 232.148 48.235C240.841 53.0163 247.633 59.6993 252.523 68.284C257.521 76.8687 260.021 86.7573 260.021 97.95C260.021 109.034 257.521 118.868 252.523 127.453C247.633 136.038 240.841 142.775 232.148 147.665C223.563 152.555 213.674 155 202.482 155H166.622ZM185.53 137.396H202.482C207.806 137.396 212.805 136.418 217.478 134.462C222.15 132.397 226.225 129.572 229.703 125.986C233.18 122.4 235.897 118.216 237.853 113.435C239.809 108.654 240.787 103.492 240.787 97.95C240.787 92.408 239.809 87.2463 237.853 82.465C235.897 77.6837 233.18 73.5 229.703 69.914C226.225 66.328 222.15 63.557 217.478 61.601C212.805 59.5363 207.806 58.504 202.482 58.504H185.53V137.396ZM307.016 155L352.493 40.9H372.542L418.182 155H398.133L386.886 126.964H338.149L327.065 155H307.016ZM344.506 110.175H380.529L362.599 64.535L344.506 110.175ZM460.108 155L505.585 40.9H525.634L571.274 155H551.225L539.978 126.964H491.241L480.157 155H460.108ZM497.598 110.175H533.621L515.691 64.535L497.598 110.175ZM805.773 155V58.178H770.728V40.9H859.726V58.178H824.681V155H805.773Z" fill="#2D302E"/>
<path d="M618.5 103.932L608 38C619.6 38 625.5 45.2707 627 48.906L632.5 85.094C632.5 94.2154 638.5 97.1567 641.5 97.4872L670 98.4786C678.8 98.4786 681.667 104.427 682 107.402L686 154H679L670 114.838H643.5C639.5 114.441 633.5 140.781 631 154H622L629 112.855C621.536 110.872 618.89 106.08 618.5 103.932Z" fill="#C68B59" stroke="#C68B59" stroke-width="2"/>
<path d="M685.365 37C693.429 37 700.541 38.5681 706.701 41.7041C712.861 44.8401 717.677 49.2086 721.149 54.8086C724.621 60.2964 726.357 66.6803 726.357 73.96C726.357 81.688 724.229 88.5201 719.973 94.4561C715.717 100.28 710.117 104.593 703.173 107.393L731.062 154.601H709.053L690.798 123.08L689.479 109.911C688.522 101.804 684.961 96.175 682.291 93.2803H686.205C690.013 93.2803 693.373 92.4398 696.285 90.7598C699.309 89.0798 701.717 86.784 703.509 83.8721C705.413 80.9601 706.365 77.656 706.365 73.96C706.365 68.3602 704.349 63.7685 700.317 60.1846C696.285 56.6006 691.077 54.8087 684.693 54.8086H663.533C659.698 46.1639 656.086 39.4944 653.289 37H685.365Z" fill="#2D302E"/>
<path d="M667 54.8096H638.204C636.128 44.4211 631.211 38.6118 628.999 37H667V54.8096Z" fill="#2D302E"/>
<path d="M43.924 219V188.9H54.459C56.523 188.9 58.3433 189.215 59.92 189.846C61.4967 190.477 62.7293 191.437 63.618 192.727C64.5067 194.017 64.951 195.651 64.951 197.629C64.951 198.69 64.6643 199.693 64.091 200.639C63.5463 201.556 62.7867 202.388 61.812 203.133C63.188 203.85 64.2343 204.796 64.951 205.971C65.6963 207.118 66.069 208.537 66.069 210.228C66.069 212.12 65.639 213.725 64.779 215.044C63.919 216.334 62.7293 217.323 61.21 218.011C59.6907 218.67 57.9133 219 55.878 219H43.924ZM50.675 212.894H55.104C56.2793 212.894 57.211 212.593 57.899 211.991C58.587 211.36 58.931 210.558 58.931 209.583C58.931 208.551 58.5727 207.748 57.856 207.175C57.1393 206.573 56.1503 206.272 54.889 206.272H50.675V212.894ZM50.675 200.725H54.244C55.3333 200.725 56.2077 200.453 56.867 199.908C57.5263 199.335 57.856 198.546 57.856 197.543C57.856 196.511 57.4977 195.723 56.781 195.178C56.093 194.605 55.1613 194.318 53.986 194.318H50.675V200.725ZM88.5701 219V206.272L77.9491 188.9H85.8181L92.0101 199.349L98.2021 188.9H106.071L95.4931 206.229V219H88.5701ZM139.972 219V188.9H147.583L155.581 200.768L163.622 188.9H171.233V219H164.31V199.65L155.624 212.378L146.895 199.65V219H139.972ZM201.603 219.516C198.507 219.516 195.769 218.857 193.39 217.538C191.011 216.191 189.147 214.356 187.8 212.034C186.453 209.683 185.779 207.003 185.779 203.993C185.779 200.954 186.453 198.274 187.8 195.952C189.147 193.601 190.996 191.767 193.347 190.448C195.726 189.101 198.45 188.427 201.517 188.427C204.584 188.427 207.293 189.101 209.644 190.448C212.023 191.767 213.887 193.601 215.234 195.952C216.581 198.274 217.255 200.954 217.255 203.993C217.255 207.003 216.581 209.683 215.234 212.034C213.915 214.356 212.081 216.191 209.73 217.538C207.379 218.857 204.67 219.516 201.603 219.516ZM201.603 213.152C203.294 213.152 204.785 212.765 206.075 211.991C207.365 211.217 208.368 210.142 209.085 208.766C209.802 207.361 210.16 205.77 210.16 203.993C210.16 202.187 209.787 200.596 209.042 199.22C208.297 197.815 207.279 196.726 205.989 195.952C204.699 195.149 203.208 194.748 201.517 194.748C199.826 194.748 198.335 195.149 197.045 195.952C195.755 196.726 194.737 197.815 193.992 199.22C193.247 200.596 192.874 202.187 192.874 203.993C192.874 205.77 193.247 207.361 193.992 208.766C194.737 210.142 195.769 211.217 197.088 211.991C198.407 212.765 199.912 213.152 201.603 213.152ZM231.789 219V188.9H242.324C244.388 188.9 246.208 189.215 247.785 189.846C249.361 190.477 250.594 191.437 251.483 192.727C252.371 194.017 252.816 195.651 252.816 197.629C252.816 198.69 252.529 199.693 251.956 200.639C251.411 201.556 250.651 202.388 249.677 203.133C251.053 203.85 252.099 204.796 252.816 205.971C253.561 207.118 253.934 208.537 253.934 210.228C253.934 212.12 253.504 213.725 252.644 215.044C251.784 216.334 250.594 217.323 249.075 218.011C247.555 218.67 245.778 219 243.743 219H231.789ZM238.54 212.894H242.969C244.144 212.894 245.076 212.593 245.764 211.991C246.452 211.36 246.796 210.558 246.796 209.583C246.796 208.551 246.437 207.748 245.721 207.175C245.004 206.573 244.015 206.272 242.754 206.272H238.54V212.894ZM238.54 200.725H242.109C243.198 200.725 244.072 200.453 244.732 199.908C245.391 199.335 245.721 198.546 245.721 197.543C245.721 196.511 245.362 195.723 244.646 195.178C243.958 194.605 243.026 194.318 241.851 194.318H238.54V200.725ZM268.48 219V188.9H278.327C281.509 188.9 284.318 189.545 286.755 190.835C289.22 192.125 291.141 193.902 292.517 196.167C293.893 198.403 294.581 200.997 294.581 203.95C294.581 206.874 293.893 209.468 292.517 211.733C291.141 213.998 289.22 215.775 286.755 217.065C284.318 218.355 281.509 219 278.327 219H268.48ZM275.403 212.464H278.327C279.645 212.464 280.864 212.263 281.982 211.862C283.1 211.432 284.074 210.844 284.906 210.099C285.737 209.325 286.382 208.422 286.841 207.39C287.299 206.329 287.529 205.183 287.529 203.95C287.529 202.717 287.299 201.585 286.841 200.553C286.382 199.492 285.737 198.589 284.906 197.844C284.074 197.07 283.1 196.482 281.982 196.081C280.864 195.651 279.645 195.436 278.327 195.436H275.403V212.464ZM309.118 219V188.9H328.726V195.264H316.041V200.768H326.662V206.917H316.041V212.636H328.941V219H309.118ZM354.995 219.516C353.533 219.516 352.129 219.33 350.781 218.957C349.463 218.556 348.259 218.025 347.169 217.366C346.109 216.678 345.234 215.918 344.546 215.087C343.858 214.227 343.428 213.31 343.256 212.335L350.093 210.4C350.409 211.231 350.953 211.962 351.727 212.593C352.53 213.195 353.533 213.51 354.737 213.539C355.913 213.568 356.887 213.295 357.661 212.722C358.464 212.149 358.865 211.403 358.865 210.486C358.865 209.769 358.579 209.139 358.005 208.594C357.461 208.049 356.672 207.634 355.64 207.347L351.383 206.272C349.893 205.899 348.588 205.312 347.47 204.509C346.381 203.706 345.521 202.732 344.89 201.585C344.288 200.41 343.987 199.077 343.987 197.586C343.987 194.691 344.948 192.44 346.868 190.835C348.789 189.201 351.498 188.384 354.995 188.384C356.916 188.384 358.593 188.656 360.026 189.201C361.46 189.717 362.678 190.491 363.681 191.523C364.713 192.555 365.53 193.845 366.132 195.393L359.338 197.414C359.109 196.64 358.607 195.938 357.833 195.307C357.088 194.676 356.113 194.361 354.909 194.361C353.705 194.361 352.759 194.633 352.071 195.178C351.412 195.723 351.082 196.511 351.082 197.543C351.082 198.26 351.355 198.862 351.899 199.349C352.444 199.808 353.189 200.152 354.135 200.381L358.392 201.456C360.829 202.058 362.721 203.19 364.068 204.853C365.444 206.487 366.132 208.35 366.132 210.443C366.132 212.335 365.688 213.955 364.799 215.302C363.939 216.649 362.678 217.696 361.015 218.441C359.353 219.158 357.346 219.516 354.995 219.516ZM380.905 219V188.9H387.828V219H380.905ZM418.137 219.516C415.041 219.516 412.304 218.857 409.924 217.538C407.574 216.191 405.725 214.356 404.377 212.034C403.03 209.683 402.356 206.989 402.356 203.95C402.356 200.911 403.03 198.231 404.377 195.909C405.725 193.558 407.574 191.724 409.924 190.405C412.304 189.058 415.041 188.384 418.137 188.384C420.058 188.384 421.792 188.671 423.34 189.244C424.917 189.789 426.293 190.548 427.468 191.523C428.644 192.498 429.618 193.616 430.392 194.877L424.673 198.317C424.243 197.629 423.67 197.013 422.953 196.468C422.265 195.923 421.506 195.508 420.674 195.221C419.843 194.906 418.997 194.748 418.137 194.748C416.446 194.748 414.941 195.135 413.622 195.909C412.332 196.683 411.315 197.772 410.569 199.177C409.824 200.553 409.451 202.144 409.451 203.95C409.451 205.756 409.81 207.361 410.526 208.766C411.243 210.142 412.275 211.231 413.622 212.034C414.97 212.837 416.532 213.238 418.309 213.238C419.542 213.238 420.66 213.009 421.663 212.55C422.667 212.091 423.469 211.461 424.071 210.658C424.673 209.855 425.032 208.909 425.146 207.82H418.352V202.488H431.811V206.573C431.754 209.382 431.123 211.762 429.919 213.711C428.715 215.632 427.096 217.079 425.06 218.054C423.054 219.029 420.746 219.516 418.137 219.516ZM445.93 219V188.9H453.197L466.398 207.261V188.9H473.321V219H466.398L452.853 200.123V219H445.93ZM509.906 219V188.9H520.441C522.505 188.9 524.326 189.215 525.902 189.846C527.479 190.477 528.712 191.437 529.6 192.727C530.489 194.017 530.933 195.651 530.933 197.629C530.933 198.69 530.647 199.693 530.073 200.639C529.529 201.556 528.769 202.388 527.794 203.133C529.17 203.85 530.217 204.796 530.933 205.971C531.679 207.118 532.051 208.537 532.051 210.228C532.051 212.12 531.621 213.725 530.761 215.044C529.901 216.334 528.712 217.323 527.192 218.011C525.673 218.67 523.896 219 521.86 219H509.906ZM516.657 212.894H521.086C522.262 212.894 523.193 212.593 523.881 211.991C524.569 211.36 524.913 210.558 524.913 209.583C524.913 208.551 524.555 207.748 523.838 207.175C523.122 206.573 522.133 206.272 520.871 206.272H516.657V212.894ZM516.657 200.725H520.226C521.316 200.725 522.19 200.453 522.849 199.908C523.509 199.335 523.838 198.546 523.838 197.543C523.838 196.511 523.48 195.723 522.763 195.178C522.075 194.605 521.144 194.318 519.968 194.318H516.657V200.725ZM558.68 219.559C556.1 219.559 553.864 219.072 551.972 218.097C550.109 217.122 548.676 215.746 547.672 213.969C546.669 212.163 546.167 210.027 546.167 207.562V188.9H553.09V207.562C553.09 208.709 553.32 209.698 553.778 210.529C554.237 211.36 554.882 212.005 555.713 212.464C556.573 212.923 557.591 213.152 558.766 213.152C559.913 213.152 560.916 212.923 561.776 212.464C562.636 212.005 563.296 211.36 563.754 210.529C564.213 209.698 564.442 208.709 564.442 207.562V188.9H571.365V207.562C571.365 210.027 570.849 212.163 569.817 213.969C568.814 215.746 567.352 217.122 565.431 218.097C563.539 219.072 561.289 219.559 558.68 219.559ZM600.698 219.516C597.716 219.516 595.079 218.857 592.786 217.538C590.521 216.191 588.729 214.356 587.411 212.034C586.121 209.683 585.476 206.989 585.476 203.95C585.476 200.911 586.121 198.231 587.411 195.909C588.729 193.558 590.521 191.724 592.786 190.405C595.079 189.058 597.716 188.384 600.698 188.384C602.876 188.384 604.869 188.771 606.675 189.545C608.509 190.29 610.086 191.351 611.405 192.727C612.752 194.103 613.784 195.694 614.501 197.5L608.008 199.693C607.578 198.69 606.99 197.815 606.245 197.07C605.528 196.325 604.697 195.751 603.751 195.35C602.833 194.949 601.816 194.748 600.698 194.748C599.121 194.748 597.716 195.135 596.484 195.909C595.251 196.683 594.291 197.772 593.603 199.177C592.915 200.553 592.571 202.144 592.571 203.95C592.571 205.756 592.915 207.361 593.603 208.766C594.319 210.142 595.294 211.231 596.527 212.034C597.788 212.808 599.221 213.195 600.827 213.195C602.002 213.195 603.048 212.98 603.966 212.55C604.883 212.12 605.671 211.518 606.331 210.744C607.019 209.97 607.606 209.081 608.094 208.078L614.587 210.271C613.899 212.106 612.881 213.725 611.534 215.13C610.186 216.506 608.595 217.581 606.761 218.355C604.926 219.129 602.905 219.516 600.698 219.516ZM640.755 219.559C638.175 219.559 635.939 219.072 634.047 218.097C632.184 217.122 630.75 215.746 629.747 213.969C628.744 212.163 628.242 210.027 628.242 207.562V188.9H635.165V207.562C635.165 208.709 635.394 209.698 635.853 210.529C636.312 211.36 636.957 212.005 637.788 212.464C638.648 212.923 639.666 213.152 640.841 213.152C641.988 213.152 642.991 212.923 643.851 212.464C644.711 212.005 645.37 211.36 645.829 210.529C646.288 209.698 646.517 208.709 646.517 207.562V188.9H653.44V207.562C653.44 210.027 652.924 212.163 651.892 213.969C650.889 215.746 649.427 217.122 647.506 218.097C645.614 219.072 643.364 219.559 640.755 219.559ZM669.184 219V188.9H681.009C683.188 188.9 685.123 189.33 686.814 190.19C688.506 191.021 689.824 192.197 690.77 193.716C691.745 195.207 692.232 196.927 692.232 198.876C692.232 200.854 691.716 202.617 690.684 204.165C689.681 205.684 688.334 206.845 686.642 207.648L693.436 219H685.524L679.762 208.895C679.59 208.895 679.404 208.895 679.203 208.895C679.031 208.895 678.859 208.895 678.687 208.895H676.107V219H669.184ZM676.107 202.531H680.794C681.597 202.531 682.314 202.373 682.944 202.058C683.575 201.743 684.062 201.313 684.406 200.768C684.779 200.195 684.965 199.564 684.965 198.876C684.965 197.815 684.564 196.941 683.761 196.253C682.987 195.565 681.955 195.221 680.665 195.221H676.107V202.531ZM707.639 219V188.9H727.247V195.264H714.562V200.768H725.183V206.917H714.562V212.636H727.462V219H707.639ZM753.516 219.516C752.054 219.516 750.65 219.33 749.302 218.957C747.984 218.556 746.78 218.025 745.69 217.366C744.63 216.678 743.755 215.918 743.067 215.087C742.379 214.227 741.949 213.31 741.777 212.335L748.614 210.4C748.93 211.231 749.474 211.962 750.248 212.593C751.051 213.195 752.054 213.51 753.258 213.539C754.434 213.568 755.408 213.295 756.182 212.722C756.985 212.149 757.386 211.403 757.386 210.486C757.386 209.769 757.1 209.139 756.526 208.594C755.982 208.049 755.193 207.634 754.161 207.347L749.904 206.272C748.414 205.899 747.109 205.312 745.991 204.509C744.902 203.706 744.042 202.732 743.411 201.585C742.809 200.41 742.508 199.077 742.508 197.586C742.508 194.691 743.469 192.44 745.389 190.835C747.31 189.201 750.019 188.384 753.516 188.384C755.437 188.384 757.114 188.656 758.547 189.201C759.981 189.717 761.199 190.491 762.202 191.523C763.234 192.555 764.051 193.845 764.653 195.393L757.859 197.414C757.63 196.64 757.128 195.938 756.354 195.307C755.609 194.676 754.634 194.361 753.43 194.361C752.226 194.361 751.28 194.633 750.592 195.178C749.933 195.723 749.603 196.511 749.603 197.543C749.603 198.26 749.876 198.862 750.42 199.349C750.965 199.808 751.71 200.152 752.656 200.381L756.913 201.456C759.35 202.058 761.242 203.19 762.589 204.853C763.965 206.487 764.653 208.35 764.653 210.443C764.653 212.335 764.209 213.955 763.32 215.302C762.46 216.649 761.199 217.696 759.536 218.441C757.874 219.158 755.867 219.516 753.516 219.516ZM785.962 219V195.264H777.19V188.9H801.614V195.264H792.842V219H785.962ZM815.487 219V188.9H822.41V219H815.487Z" fill="#C68B59"/>
</svg>
